<svg width="16.000000" height="16.000000" viewBox="0 0 16 16" fill="none" xmlns="http://www.w3.org/2000/svg" xmlns:xlink="http://www.w3.org/1999/xlink">
	<desc>
			Created with Pixso.
	</desc>
	<defs/>
	<path id="Vector" d="M12.2 9C11.09 8.9 10.49 10.4 9.69 10.79C8.39 11.5 5.99 9 5.99 9C5.99 9 3.49 6.59 4.09 5.29C4.59 4.5 6.09 3.9 5.99 2.79C5.89 1.79 3.69 -1.81 2.59 -0.81C0.19 1.4 -0.01 2.29 -0.01 4.09C-0.11 7.19 3.89 11.1 3.89 11.1C4.29 11.5 7.79 15.1 10.89 15C12.7 15 13.59 14.79 15.79 12.4C16.79 11.29 13.29 9.09 12.2 9Z" fill="#607CE6" fill-opacity="1.000000" fill-rule="evenodd"/>
</svg>
